<?xml version="1.0" encoding="UTF-8"?>
<svg width="28px" height="28px" viewBox="0 0 28 28" version="1.1" xmlns="http://www.w3.org/2000/svg" xmlns:xlink="http://www.w3.org/1999/xlink">
    <title>Group 9</title>
    <g id="Page-1" stroke="none" stroke-width="1" fill="none" fill-rule="evenodd">
        <g id="Desktop:-STATS-B1-Copy-29" transform="translate(-540.000000, -620.000000)">
            <g id="Group-9" transform="translate(540.000000, 620.000000)">
                <circle id="Oval-Copy-12" fill="#AC1E79" fill-rule="nonzero" cx="14" cy="14" r="14"></circle>
                <g id="Group-12" transform="translate(4.700000, 7.000000)">
                    <path d="M9.15364594,2.56679543 C10.3508193,1.33441111 11.1958828,0.242870686 13.0620648,0.0316048206 C16.5479519,-0.373321463 19.7521512,3.1829876 17.9916021,6.66887468 C17.4986484,7.67238764 16.4775299,8.8519555 15.3331731,10.0139179 C14.1007887,11.2815132 12.7275605,12.531503 11.7592585,13.4821995 L9.15364594,16.0702066 L6.99345226,14.0103642 C4.38783969,11.5103845 0.144916509,8.37660725 0.00407258203,4.48579389 C-0.106842012,1.76046396 2.06391497,0.0175204229 4.54100745,0.052731392 C6.75929926,0.0879423864 7.69239023,1.17948278 9.15364594,2.57031653 L9.15364594,2.56679543 Z" id="Path" stroke="#FFFFFF" stroke-width="2" stroke-linejoin="round"></path>
                    <path d="M13.0669752,0.0314598456 C11.2007932,0.242725711 10.3557297,1.33426613 9.1585563,2.58425595 C7.70258225,1.17581671 6.76420962,0.0842763118 4.54591781,0.0490653175 C2.06882533,0.0138543484 -0.101931652,1.77440338 0.00370130602,4.50325439 C0.109334239,7.6194262 2.82057977,10.2426443 5.23253195,12.4609361 L5.84872412,11.3870011 C6.72899863,9.85532348 11.0247383,9.66166306 11.9754348,11.3165792 L12.7324708,12.6369909 C13.5423234,11.8623494 14.4754144,10.9820748 15.3380834,10.0841948 C16.4648348,8.92223249 17.4859533,7.72505913 17.9965125,6.72154617 C19.7570615,3.2004481 16.5528623,-0.373466438 13.0669752,0.0314598456 Z M3.57761584,6.82717913 C3.57761584,6.8447846 3.56001035,6.8447846 3.54240487,6.8447846 C3.52479938,6.8447846 3.52479938,6.82717913 3.50719388,6.82717913 C3.46293032,6.45748177 3.32339922,6.1056207 3.1022676,5.80606067 C2.82280263,5.56444161 2.48128108,5.40587806 2.11636016,5.34831792 C2.09875466,5.34831792 2.09875466,5.33071245 2.09875466,5.31310695 C2.09875466,5.29550146 2.11636016,5.29550146 2.11636016,5.27789596 C2.48605751,5.2336324 2.83791856,5.09410129 3.13747859,4.8729697 C3.37909765,4.59350471 3.53766123,4.25198315 3.59522134,3.88706224 C3.59522134,3.86945674 3.61282684,3.86945674 3.63043231,3.86945674 C3.64803781,3.86945674 3.64803781,3.88706224 3.6656433,3.88706224 C3.70990686,4.25675959 3.84943797,4.60862064 4.07056959,4.90818067 C4.24662448,5.10184106 4.5811288,5.26029049 5.05647705,5.36592342 C5.07408252,5.36592342 5.07408252,5.38352892 5.07408252,5.40113441 C5.07408252,5.41873989 5.05647705,5.41873989 5.05647705,5.43634538 C4.68769042,5.48416395 4.33669176,5.62335306 4.03535859,5.84127167 C3.8416982,6.01732656 3.6832488,6.35183088 3.57761584,6.82717913 Z M5.80647093,7.81308659 C5.56779558,7.84612314 5.34261297,7.94349939 5.15506778,8.09477442 C5.00710826,8.28430469 4.9101337,8.50855835 4.87337993,8.74617756 C4.87337993,8.75590082 4.86549769,8.76378306 4.85577446,8.76378306 C4.8460512,8.76378306 4.83816896,8.75590082 4.83816896,8.74617756 C4.80513242,8.50750221 4.70775616,8.28231964 4.55648111,8.09477442 C4.36695087,7.94681492 4.1426972,7.84984036 3.90507797,7.81308659 C3.89535473,7.81308659 3.88747247,7.80520433 3.88747247,7.7954811 C3.88747247,7.78575784 3.89535473,7.7778756 3.90507797,7.7778756 C4.14375334,7.74483905 4.36893592,7.6474628 4.55648111,7.49618777 C4.70444064,7.3066575 4.80141519,7.08240384 4.83816896,6.8447846 C4.83816896,6.83506137 4.8460512,6.82717913 4.85577446,6.82717913 C4.87337993,6.82717913 4.87337993,6.82717913 4.87337993,6.8447846 C4.90641648,7.08345998 5.00379273,7.30864256 5.15506778,7.49618777 C5.34459805,7.64414727 5.56885169,7.74112183 5.80647093,7.7778756 C5.81619418,7.7778756 5.82407642,7.78575784 5.82407642,7.7954811 C5.82407642,7.80520433 5.81619418,7.81308659 5.80647093,7.81308659 L5.80647093,7.81308659 Z M6.11808811,4.8729697 C6.11808811,4.88269293 6.11020587,4.89057517 6.10048262,4.89057517 C6.08287712,4.89057517 6.08287712,4.89057517 6.08287712,4.8729697 C6.0498406,4.63429432 5.95246432,4.40911175 5.80118929,4.22156656 C5.61165903,4.07360703 5.38740536,3.97663247 5.14978615,3.9398787 C5.14511687,3.9398787 5.14063885,3.93802383 5.13733717,3.93472218 C5.1340355,3.93142051 5.13218065,3.92694246 5.13218065,3.92227321 C5.13218065,3.90466771 5.13218065,3.90466771 5.14978615,3.90466771 C5.3884615,3.87163119 5.6136441,3.77425491 5.80118929,3.62297988 C5.94914882,3.43344962 6.04612335,3.20919595 6.08287712,2.97157674 C6.08287712,2.96185348 6.09075938,2.95397124 6.10048262,2.95397124 C6.11808811,2.95397124 6.11808811,2.95397124 6.11808811,2.97157674 C6.15112466,3.21025209 6.24850091,3.43543469 6.39977597,3.62297988 C6.58930621,3.77093938 6.81355988,3.86791394 7.05117911,3.90466771 C7.05584837,3.90466771 7.06032639,3.90652258 7.06362806,3.90982426 C7.06692974,3.91312593 7.06878458,3.91760395 7.06878458,3.92227321 C7.06878458,3.9398787 7.06878458,3.9398787 7.05117911,3.9398787 C6.81250373,3.97291525 6.58732116,4.0702915 6.39977597,4.22156656 C6.23465541,4.40042795 6.13531441,4.63015402 6.11808811,4.8729697 Z M8.93496658,9.74970232 C7.94358488,9.74970232 7.05016675,9.15150982 6.67244715,8.23490435 C6.29472756,7.31829888 6.50734355,6.26436351 7.21088241,5.56588607 C7.9144213,4.86740861 8.96986434,4.6624077 9.88371873,5.04673546 C10.7975731,5.43106324 11.389262,6.32877682 11.3821297,7.32013285 C11.3753405,8.66599469 10.2808423,9.75261872 8.93496658,9.74970232 L8.93496658,9.74970232 Z" id="Shape" fill="#FFFFFF" fill-rule="nonzero"></path>
                </g>
            </g>
        </g>
    </g>
</svg>