<?xml version="1.0" encoding="UTF-8"?>
<svg width="28px" height="28px" viewBox="0 0 28 28" version="1.1" xmlns="http://www.w3.org/2000/svg" xmlns:xlink="http://www.w3.org/1999/xlink">
    <title>Constitution</title>
    <g id="Page-1" stroke="none" stroke-width="1" fill="none" fill-rule="evenodd">
        <g id="Desktop:-STATS-B1-Copy-29" transform="translate(-540.000000, -491.000000)" fill-rule="nonzero">
            <g id="Constitution" transform="translate(540.000000, 491.000000)">
                <circle id="Oval" fill="#D05301" cx="14" cy="14" r="14"></circle>
                <path d="M16.0357444,4.66666667 L12.2559223,4.66666667 C12.0712858,4.66666667 11.9040679,4.74157326 11.7821381,4.8652562 C11.6602084,4.98719716 11.5835669,5.15443046 11.5835669,5.3390839 L11.5835669,10.9727557 C11.5835669,11.3107063 11.3100959,11.5842024 10.9721763,11.5842024 L5.33902212,11.5842024 C5.15438563,11.5842024 4.9871677,11.659109 4.86523797,11.78105 C4.74330821,11.9029909 4.66666667,12.0702242 4.66666667,12.2548776 L4.66666667,16.035047 C4.66666667,16.2197004 4.74156637,16.3869338 4.86523797,16.5088747 C4.9871677,16.6308157 5.15438563,16.7074642 5.33902212,16.7074642 L10.9721763,16.7074642 C11.3100959,16.7074642 11.5835669,16.9809604 11.5835669,17.318911 L11.5835669,22.9525828 C11.5835669,23.1372362 11.6584665,23.3044695 11.7821381,23.4264105 C11.9040679,23.5483514 12.0712858,23.625 12.2559223,23.625 L16.0357444,23.625 C16.2203808,23.625 16.3875988,23.5500934 16.5095285,23.4264105 C16.6314583,23.3044695 16.706358,23.1372362 16.706358,22.9525828 L16.706358,17.318911 C16.706358,16.9809604 16.979829,16.7074642 17.3177485,16.7074642 L22.9526445,16.7074642 C23.137281,16.7074642 23.304499,16.6325577 23.4264287,16.5088747 C23.5483585,16.3869338 23.625,16.2197004 23.625,16.035047 L23.625,12.2548776 C23.625,12.0702242 23.5501003,11.9029909 23.4264287,11.78105 C23.304499,11.659109 23.137281,11.5842024 22.9526445,11.5842024 L17.3194904,11.5842024 C16.9815708,11.5842024 16.7080998,11.3107063 16.7080998,10.9727557 L16.7080998,5.33734189 C16.7080998,5.15268845 16.6332001,4.98545515 16.5112704,4.86351419 C16.3875988,4.74157326 16.2203808,4.66666667 16.0357444,4.66666667 L16.0357444,4.66666667 Z" id="Shape-Copy-3" fill="#FFFFFF"></path>
            </g>
        </g>
    </g>
</svg>