<?xml version="1.0" encoding="UTF-8"?>
<svg width="28px" height="28px" viewBox="0 0 28 28" version="1.1" xmlns="http://www.w3.org/2000/svg" xmlns:xlink="http://www.w3.org/1999/xlink">
    <title>Dexterity</title>
    <g id="Page-1" stroke="none" stroke-width="1" fill="none" fill-rule="evenodd">
        <g id="Desktop:-STATS-B1-Copy-29" transform="translate(-540.000000, -448.000000)" fill-rule="nonzero">
            <g id="Dexterity" transform="translate(540.000000, 448.000000)">
                <g id="Group-52" fill="#003059">
                    <circle id="Oval-Copy-3" cx="14" cy="14" r="14"></circle>
                </g>
                <path d="M7.94147133,14.3124322 L7.90167822,14.3540819 L7.58333333,14.2260476 L7.58333333,9.4918633 C7.58333333,9.27281664 7.64761451,9.06611067 7.75781081,8.89179888 L7.75781081,8.89179888 C7.77923787,8.8578621 7.80219545,8.82392528 7.82821401,8.79307362 C7.8542326,8.75913684 7.88178166,8.72828518 7.90933074,8.70051872 L7.91239175,8.69743356 C7.99503897,8.61413411 8.09299126,8.54163275 8.20165707,8.48764239 L8.20624857,8.4860998 L8.25981622,8.45987593 L8.26593825,8.45679074 C8.39756161,8.39971522 8.54449,8.367321 8.69600993,8.367321 L8.69600993,8.367321 L8.70213196,8.367321 L8.70213196,8.367321 C9.00976332,8.367321 9.2898456,8.49381272 9.49187216,8.69743356 C9.57451938,8.78073297 9.6464531,8.87945823 9.70002075,8.98743898 L9.70308176,8.9936093 L9.72756983,9.04759966 L9.72910032,9.05222742 C9.78572898,9.18488947 9.81786957,9.33297735 9.81786957,9.48569297 L9.81786957,9.48723557 L9.81786957,9.49340589 L9.81786957,13.3436907 L9.81786957,13.5180024 L9.64492258,13.5288005 C9.17352727,13.5581096 8.73886405,13.7108252 8.37154305,13.9560957 C8.29807883,14.0054584 8.22767563,14.0579062 8.16033345,14.1134391 C8.09758276,14.1658869 8.0317711,14.224505 7.96748989,14.2908361 L7.94147133,14.3124322 L7.94147133,14.3124322 L7.94147133,14.3124322 Z M17.6265024,17.5256306 L17.8147544,17.5965894 L17.8958711,17.6567501 C17.9096457,17.675261 17.9264812,17.6906869 17.9463778,17.7045701 L17.9463778,17.7045701 L17.9708658,17.7184533 L17.9708658,17.7199959 C17.9968844,17.7323366 18.0244335,17.7385069 18.0535131,17.7385069 L18.0535131,17.7385069 L18.0581046,17.7385069 C18.0856537,17.7385069 18.1101417,17.7338792 18.1330993,17.7246237 L18.1514654,17.7153682 L18.1698314,17.7045701 L18.1759534,17.7014849 L18.1820754,17.6983998 C18.2647227,17.6505797 18.374919,17.5672803 18.4958288,17.4670125 C18.6182691,17.3636595 18.757545,17.2371678 18.8952904,17.1075909 C19.1646592,16.8515222 19.47076,16.5430058 19.5932004,16.4211419 L19.5993224,16.4149715 C19.98654,16.0246983 20.3814101,15.8442162 20.7288346,15.8210774 C20.7992377,15.8164497 20.8696409,15.8179923 20.9354526,15.8257052 C21.0027948,15.8334181 21.0686065,15.8473013 21.1313572,15.8673549 L21.1328877,15.8673549 L21.1405402,15.87044 L21.1420707,15.87044 C21.2660415,15.9105472 21.3808294,15.9737931 21.4818426,16.0555499 L21.4864341,16.0601776 L21.5338798,16.1018274 L21.5430628,16.1095403 L21.5874474,16.1542751 L21.5951,16.1635307 L21.5966305,16.1650732 L21.5966305,16.1650732 L21.598161,16.1681584 L21.598161,16.1681584 C21.6838692,16.2637985 21.7527419,16.376407 21.8032485,16.5013561 L21.8063096,16.5059839 L21.8292671,16.5707723 L21.8323281,16.5846556 L21.8506942,16.6509866 L21.8522247,16.6586995 L21.8537552,16.667955 L21.8537552,16.667955 C21.9409939,17.0350895 21.8690602,17.4808957 21.5660204,17.9282445 C21.5093917,18.0130865 21.4420495,18.0994711 21.3685853,18.1827706 C21.2951211,18.26607 21.2124739,18.350912 21.1206436,18.4326688 L21.1206436,18.4326688 L21.1083996,18.4434669 L21.0930945,18.4573502 L21.082381,18.4681482 L21.076259,18.4743185 L17.3234625,22.299922 L17.1933697,22.4433822 L17.1841866,22.4341267 C16.9775686,22.6238643 16.775542,22.787378 16.5704544,22.9277529 C16.3255737,23.0943518 16.0776321,23.2285564 15.8205073,23.3303668 C15.5618521,23.4337198 15.2909529,23.5077638 15.0047486,23.5555838 C14.7185443,23.6018613 14.4170349,23.625 14.095629,23.625 L11.6621272,23.625 C10.85096,23.625 10.0964214,23.3843572 9.46432308,22.9724878 L9.46432308,22.9724878 C9.34341325,22.8938161 9.2240339,22.8058889 9.1092461,22.7117914 C8.99292777,22.6161513 8.88426195,22.5174261 8.78477918,22.4156157 L8.78171817,22.4125305 L8.78171817,22.4125305 C8.47408683,22.0978438 8.21390109,21.7307093 8.01646603,21.3280953 C7.97820345,21.2478811 7.94147133,21.1676668 7.90780025,21.0874525 C7.69965166,20.587656 7.58486382,20.0400393 7.58333333,19.4661988 L7.58333333,19.4661988 L7.58333333,19.4615711 L7.58333333,16.2267765 C7.58333333,15.9290582 7.6384315,15.6421379 7.73638375,15.379899 L7.73638375,15.3783564 C7.7547498,15.3305363 7.77617686,15.2796312 7.79913444,15.2287259 L7.79913444,15.2287259 C7.82209199,15.1793633 7.84658006,15.1300007 7.87259865,15.0821806 L7.87412914,15.0790955 L7.87872065,15.0713826 L7.88178166,15.0652122 C7.97667293,14.9155818 8.08993025,14.7752068 8.2169621,14.6502577 L8.22002312,14.6471725 L8.29042632,14.5808415 L8.29654831,14.5762137 L8.37001252,14.5129678 L8.37613455,14.5067975 L8.37919556,14.5037124 L8.37919556,14.5037124 C8.54142902,14.3725929 8.72202852,14.261527 8.91640254,14.1782276 L8.91640254,14.1782276 C8.96078718,14.1597166 9.0036413,14.1412056 9.03272087,14.1319501 L9.03272087,14.1319501 C9.27147955,14.0440229 9.53013477,13.9962029 9.79950352,13.9962029 L9.79950352,13.9962029 L9.80562555,13.9962029 L9.9035778,13.9962029 L9.94796244,14.0023732 L9.98928604,14.0131713 L10.0214267,14.0162565 L10.0214267,14.0162565 L12.6646075,14.0162565 L12.6646075,14.0162565 L12.6814431,14.0162565 L12.6936871,14.0162565 L12.7105226,14.0162565 L12.7105226,14.0162565 L15.3537035,14.0162565 L15.3537035,14.0162565 L15.3613561,14.0162565 L15.3720696,14.0162565 L15.3797221,14.0162565 L15.3797221,14.0162565 L15.5756266,14.0162565 C15.9643747,14.0162565 16.3316958,14.1165243 16.6546322,14.2923786 L16.6546322,14.2923786 C16.7189133,14.327858 16.7801335,14.36488 16.8367622,14.4034445 L16.8367622,14.4034445 L16.8382927,14.4034445 C16.8933908,14.4404665 16.95155,14.4836588 17.0081787,14.5299363 L17.0097091,14.5314789 L17.0127702,14.534564 L17.0127702,14.534564 C17.2913219,14.7644087 17.5178366,15.0605845 17.6632345,15.39841 C17.6938446,15.4678262 17.7198631,15.5356998 17.7397597,15.6004882 L17.7397597,15.6004882 C17.7627173,15.6699044 17.7810833,15.7408632 17.7979189,15.8118219 L17.7979189,15.8133645 L17.7994494,15.8241626 L17.8025104,15.841131 C17.8040409,15.8534717 17.8055714,15.8658123 17.8086324,15.8750678 L17.8086324,15.8750678 L17.8101629,15.8796956 L17.8101629,15.8796956 L17.8162849,15.8966639 L17.8162849,15.8966639 L17.8193459,15.9059195 L17.837712,15.9614524 L17.846895,16.0617202 L17.846895,16.0678906 L17.849956,16.1079977 L17.849956,16.114168 L17.853017,16.1851268 L17.853017,16.1897546 L17.853017,16.2283191 L17.853017,16.2298617 L17.853017,16.9132255 L17.853017,17.1692941 L17.6111973,17.0890799 C17.2346933,16.9641307 16.8750248,16.8792887 16.5352528,16.8330112 L16.5352528,16.8330112 C16.4587276,16.8222132 16.3852634,16.8145003 16.3179212,16.8067874 C16.2490485,16.800617 16.1771148,16.7944467 16.1051811,16.7913615 L15.9490697,16.7867338 C15.512876,16.7805635 15.1103534,16.8438093 14.7537459,16.9672159 C14.6756901,16.9949824 14.6022259,17.0227488 14.5364143,17.0520579 C14.4675415,17.0829096 14.3986689,17.1153038 14.3343877,17.1507832 L14.2257219,17.214029 C13.8844194,17.420735 13.6012761,17.6983998 13.385475,18.0377678 C13.3410904,18.1087266 13.2997668,18.1766002 13.2660957,18.2429312 C13.2293636,18.3123474 13.1956925,18.387934 13.1620214,18.4650631 L13.1620214,18.4650631 L13.1604909,18.4696908 L13.1604909,18.4696908 C13.0564166,18.7195891 12.9814219,18.9941687 12.9385678,19.291887 C12.9293848,19.3597606 12.9202017,19.4260917 12.9156102,19.4893375 C12.9110187,19.5417853 12.9048967,19.5973183 12.9033662,19.6528512 L13.3104803,19.657479 C13.3227244,19.4492304 13.3533345,19.2502373 13.3977191,19.0651275 L13.3977191,19.0651275 C13.4114936,19.0080519 13.4252681,18.9540616 13.4390427,18.9062415 L13.4390427,18.9062415 C13.4528172,18.8599641 13.4696528,18.8075163 13.4895493,18.7550685 L13.4895493,18.7550685 L13.5385255,18.6285768 L13.5385255,18.6285768 C13.6747403,18.3000068 13.8721754,18.0207994 14.1201171,17.7986676 C14.1690932,17.7554753 14.2211304,17.7138256 14.271637,17.675261 C14.3282657,17.6336113 14.3818333,17.5965894 14.4338705,17.5657377 L14.4369315,17.5641951 L14.441523,17.56111 L14.441523,17.56111 C14.7017087,17.4037666 15.0047486,17.2942433 15.3445205,17.2387103 C15.4133932,17.2279122 15.4883879,17.2171142 15.5649131,17.2109439 C15.6399078,17.2032309 15.7179635,17.2001458 15.7929583,17.1970606 L15.7975498,17.1970606 L15.9475392,17.1970606 L15.9506002,17.1970606 C16.3026162,17.2016884 16.6837117,17.2572213 17.0892954,17.3621169 L17.0892954,17.3621169 C17.1826561,17.3852556 17.2698949,17.4114795 17.3525421,17.4377034 C17.4474334,17.4670125 17.5377331,17.4978641 17.6234414,17.5271732 L17.6265024,17.5256306 L17.6265024,17.5256306 Z M14.9664859,13.5226302 L13.1008012,13.5226302 L12.9171407,13.5226302 L12.9171407,13.3375204 L12.9171407,5.79429413 L12.9171407,5.79429413 C12.9171407,5.48423514 13.0426421,5.20194264 13.2446686,4.9983218 C13.3273159,4.91502238 13.4252681,4.84252102 13.5324034,4.78853066 L13.5369949,4.78698806 L13.5905626,4.76076417 L13.5966846,4.757679 C13.728308,4.70060348 13.8737059,4.66820926 14.0267563,4.66820926 L14.0267563,4.66666667 L14.0328783,4.66666667 L14.0328783,4.66820926 C14.3405097,4.66820926 14.620592,4.79470098 14.8226185,4.9983218 C14.9052658,5.08162124 14.975669,5.1803465 15.0307671,5.28832722 L15.0338281,5.29295497 L15.0583162,5.34694536 L15.0613772,5.35311569 C15.1180059,5.48577773 15.1501465,5.63232302 15.1501465,5.78658124 L15.1501465,5.7881238 L15.1501465,5.79429413 L15.1501465,13.3359778 L15.1501465,13.5210876 L14.9664859,13.5210876 L14.9664859,13.5226302 Z M15.7914277,13.5303431 L15.7577567,13.5272579 L15.5863402,13.5133747 L15.5863402,13.3421481 L15.5863402,7.60065772 L15.5863402,7.60065772 C15.5863402,7.29059873 15.7118415,7.0083062 15.9138681,6.80468539 C15.9965153,6.72138594 16.0944676,6.65042717 16.2031334,6.59489422 L16.2092554,6.59180906 L16.2628231,6.56712776 L16.2674146,6.5640426 C16.399038,6.50696705 16.5444359,6.47457282 16.6974863,6.47457282 L16.6974863,6.47457282 L16.7036083,6.47457282 C16.9209399,6.47457282 17.1260275,6.53936127 17.2989745,6.65042717 L17.2989745,6.65042717 L17.300505,6.65196977 C17.3341761,6.67202331 17.3663167,6.69670464 17.3969267,6.72138594 L17.3969267,6.72138594 L17.3984572,6.72292854 C17.4305978,6.74760984 17.4612079,6.77537633 17.488757,6.80314279 L17.491818,6.80622795 C17.5744652,6.8895274 17.6463989,6.98825266 17.6999666,7.09623337 L17.7014971,7.10086113 L17.7275157,7.15485149 L17.7305767,7.16102185 C17.7872053,7.29368389 17.8193459,7.44177178 17.8193459,7.5944874 L17.8193459,7.5944874 L17.8193459,7.60065772 L17.8193459,14.2183347 L17.5025315,14.3479116 L17.4719215,14.31706 C17.1566376,13.999288 16.763298,13.7586452 16.3255737,13.6306109 C16.238335,13.604387 16.1480353,13.5827909 16.0607965,13.5673651 C15.9766188,13.5503966 15.8847885,13.538056 15.7914277,13.5303431 L15.7914277,13.5303431 Z M12.2789204,13.5226302 L10.4132357,13.5226302 L10.2280447,13.5226302 L10.2280447,13.3375204 L10.2280447,9.4918633 L10.2280447,9.4918633 L10.2280447,7.58214675 L10.2280447,7.58214675 C10.2280447,7.36310009 10.2923259,7.15485149 10.4025222,6.98053974 L10.4025222,6.98053974 C10.4239493,6.94506035 10.4484373,6.91112354 10.4729254,6.88027191 C10.498944,6.8463351 10.526493,6.81548344 10.5525116,6.78925957 L10.5555726,6.78617438 C10.6382199,6.70287497 10.7361721,6.6319162 10.8448379,6.57638325 L10.8494294,6.57484065 L10.9029971,6.55015935 L10.9091191,6.54707419 C11.0407425,6.48999864 11.1861404,6.45760442 11.3391908,6.45760442 L11.3391908,6.45760442 L11.3453128,6.45760442 L11.3453128,6.45760442 C11.6529442,6.45760442 11.9330265,6.58409614 12.135053,6.78771698 C12.2177003,6.8710164 12.2881035,6.96974165 12.3432016,7.0777224 L12.3447321,7.08235016 L12.3707507,7.13634052 L12.3738117,7.14251084 C12.4304404,7.27517292 12.462581,7.42326077 12.462581,7.57597639 L12.462581,7.57597639 L12.462581,7.58214675 L12.462581,13.3359778 L12.462581,13.5210876 L12.2789204,13.5210876 L12.2789204,13.5226302 Z" id="Shape" fill="#FFFFFF"></path>
            </g>
        </g>
    </g>
</svg>