<?xml version="1.0" encoding="UTF-8"?>
<svg width="28px" height="28px" viewBox="0 0 28 28" version="1.1" xmlns="http://www.w3.org/2000/svg" xmlns:xlink="http://www.w3.org/1999/xlink">
    <title>Intelligence 2</title>
    <defs>
        <polygon id="path-1" points="0 0 16.717803 0 16.717803 18.9583333 0 18.9583333"></polygon>
    </defs>
    <g id="Page-1" stroke="none" stroke-width="1" fill="none" fill-rule="evenodd">
        <g id="Desktop:-STATS-B1-Copy-29" transform="translate(-540.000000, -534.000000)">
            <g id="Intelligence" transform="translate(540.000000, 534.000000)">
                <circle id="Oval" fill="#33018F" fill-rule="nonzero" cx="14" cy="14" r="14"></circle>
                <g id="Fill-1-Clipped" transform="translate(5.541667, 4.666667)">
                    <path d="M1.56367234,12.697286 L0.604359379,12.6617995 C0.0626114708,12.6509993 -0.227666075,12.0693298 0.219392396,11.3889154 L0.96138525,9.87996899 C1.50313316,8.7783456 1.28891764,8.98509284 1.32772482,7.8248396 C1.35256138,7.07499511 1.49381945,6.39612353 1.83377014,5.83451161 C1.29202223,5.59844944 -0.161528704,5.63714848 0.206974104,5.12941091 C10.2626848,-8.72574063 23.9336702,9.24584124 12.193729,15.0116209 L12.7322171,18.9583333 L5.46767241,18.9583333 C5.64308077,17.0821792 6.5340931,17.5003023 4.32518969,17.8952822 C2.35533836,18.2469068 0.81236575,17.7888228 1.80893358,15.8200952 C1.70958725,15.3711143 1.64128665,14.8573319 1.62265921,14.3882934 C1.5683292,13.818967 1.57609063,13.2650695 1.56367234,12.697286 Z" id="Fill-1-path" fill="#FFFFFF" fill-rule="nonzero"></path>
                    <mask id="mask-2" fill="white">
                        <use xlink:href="#path-1"></use>
                    </mask>
                    <g id="path-1"></g>
                    <path d="M8.12829115,5.56604878 C8.1888303,5.50587605 8.26334005,5.47501827 8.34561122,5.47501827 C8.4278824,5.47501827 8.50239215,5.50587605 8.5629313,5.56604878 L8.892016,5.89314142 C8.98049632,5.8360545 9.07518579,5.78513912 9.17297984,5.74193821 C9.27077387,5.69565153 9.3701202,5.66016506 9.47101881,5.62467859 L9.47101881,5.12169648 C9.47101881,5.03683752 9.49895995,4.96586458 9.55949913,4.90569188 C9.62003828,4.84551918 9.69144348,4.81774714 9.77681921,4.81774714 L10.4117043,4.81774714 C10.4924232,4.81774714 10.5638284,4.84551918 10.6259198,4.90569188 C10.686459,4.96586458 10.7175047,5.03683752 10.7175047,5.12169648 L10.7175047,5.58302057 C10.8230602,5.60924968 10.9270634,5.64010749 11.0264097,5.67713685 C11.1273083,5.71416621 11.2204455,5.75891 11.3104781,5.80828249 L11.6768177,5.45033201 C11.7342522,5.39015931 11.8025529,5.3593015 11.8879286,5.3593015 C11.9701998,5.3593015 12.0431572,5.39015931 12.1052487,5.45033201 L12.5492026,5.89468431 C12.6097417,5.95485704 12.6407875,6.02891575 12.6407875,6.11068891 C12.6407875,6.19246206 12.6097417,6.26652078 12.5492026,6.32669351 L12.2201179,6.65378615 C12.2775525,6.74173089 12.3256733,6.83584717 12.3722419,6.93304923 C12.4188105,7.03025132 12.4545131,7.12899626 12.4902157,7.2323699 L12.996261,7.2323699 C13.0814815,7.2323699 13.1530419,7.2601419 13.2135811,7.3203146 C13.2741203,7.38048733 13.3020614,7.45146025 13.3020614,7.5363192 L13.3020614,8.16736118 C13.3020614,8.24759145 13.2741203,8.31856439 13.2135811,8.38027998 C13.1530419,8.44045271 13.0814815,8.47131049 12.996261,8.47131049 L12.5321274,8.47131049 C12.5057386,8.57622701 12.4746928,8.67960065 12.4374379,8.7783456 C12.4001831,8.87863343 12.3551668,8.9742926 12.3053384,9.06840891 L12.665624,9.42635937 C12.7261632,9.48344629 12.7572089,9.55133346 12.7572089,9.63619239 C12.7572089,9.71796557 12.7261632,9.7904814 12.665624,9.85219699 L12.2185656,10.3010237 C12.1580264,10.3582649 12.0835167,10.3860369 12.0012455,10.3860369 C11.9189743,10.3860369 11.8444646,10.3582649 11.7839254,10.3010237 L11.4548407,9.96791373 C11.3663604,10.0250007 11.2716709,10.0728303 11.1738769,10.1191169 C11.0760828,10.1654036 10.9767365,10.2008901 10.8758379,10.2362223 L10.8758379,10.7393587 C10.8758379,10.8242176 10.8478968,10.8951906 10.7873576,10.9553633 C10.7268184,11.015536 10.6554133,11.043308 10.5700375,11.043308 L9.93515241,11.043308 C9.85443352,11.043308 9.78287313,11.015536 9.7209369,10.9553633 C9.66039775,10.8951906 9.62935202,10.8242176 9.62935202,10.7393587 L9.62935202,10.2780346 C9.52379654,10.2518055 9.41979337,10.2209477 9.32044703,10.1839183 C9.21954842,10.146889 9.12315145,10.1021451 9.02861721,10.0527727 L8.66848678,10.4107231 C8.61105219,10.4708958 8.53964702,10.5017536 8.45427126,10.5017536 C8.36889553,10.5017536 8.29749037,10.4708958 8.24005575,10.4107231 L7.78834044,9.96621655 C7.73090585,9.90311236 7.7029647,9.83213942 7.7029647,9.75036624 C7.7029647,9.66859308 7.73090585,9.59453437 7.78834044,9.53436167 L8.12363428,9.20726899 C8.06619969,9.11932426 8.0180788,9.02520798 7.97151022,8.92800592 C7.92494165,8.83080386 7.88923905,8.73205888 7.85353645,8.63177105 L7.34749114,8.63177105 C7.26211538,8.63177105 7.19071022,8.60399905 7.13017104,8.54382632 C7.06963189,8.48365362 7.04169072,8.41268068 7.04169072,8.32782175 L7.04169072,7.69677977 C7.04169072,7.61654947 7.06963189,7.54557653 7.13017104,7.48386094 C7.19071022,7.42368824 7.26211538,7.39283043 7.34749114,7.39283043 L7.81162474,7.39283043 C7.8380136,7.29099971 7.86905933,7.19071185 7.90631421,7.08888113 C7.94356908,6.98705038 7.98858538,6.8929341 8.03825855,6.80190359 L7.67812812,6.43778158 C7.61758894,6.38069466 7.58654321,6.31280749 7.58654321,6.22794853 C7.58654321,6.14617538 7.61758894,6.07365955 7.67812812,6.01194396 L8.12518656,5.57067744 L8.12829115,5.56604878 Z" id="Fill-1-path" fill="#33018F" fill-rule="nonzero" mask="url(#mask-2)"></path>
                    <path d="M10.1742045,6.69081551 C10.0019007,6.69081551 9.84201522,6.72167332 9.68833889,6.7880176 C9.53621483,6.85281896 9.40427049,6.94230658 9.29095358,7.05185177 C9.17918899,7.16293985 9.09070867,7.29717126 9.02551262,7.44683158 C8.9603166,7.60112057 8.9277186,7.76003824 8.9277186,7.92975613 C8.9277186,8.1010169 8.95876432,8.25993458 9.02551262,8.41268068 C9.09070867,8.56388388 9.18074127,8.69502953 9.29095358,8.80766049 C9.40271821,8.91874856 9.53776711,9.0066933 9.68833889,9.07149469 C9.84046295,9.13629605 10.003453,9.16869675 10.1742045,9.16869675 C10.3465083,9.16869675 10.5063938,9.13783894 10.6600701,9.07149469 C10.8121942,9.0066933 10.9441385,8.91720568 11.0574554,8.80766049 C11.16922,8.69657244 11.2575451,8.562341 11.3228964,8.41268068 C11.3880924,8.26147747 11.4206904,8.09947402 11.4206904,7.92975613 C11.4206904,7.75849535 11.3896447,7.59957768 11.3228964,7.44683158 C11.2575451,7.29562838 11.1676677,7.16448273 11.0574554,7.05185177 C10.9456908,6.9407637 10.8106419,6.85281896 10.6600701,6.7880176 C10.5063938,6.72167332 10.3465083,6.69081551 10.1742045,6.69081551 L10.1742045,6.69081551 Z" id="Fill-1-path" fill="#FFFFFF" fill-rule="nonzero" mask="url(#mask-2)"></path>
                    <path d="M4.61081037,8.96040661 C4.6511698,8.93263458 4.69152924,8.92337725 4.73654557,8.93263458 C4.78311415,8.94189193 4.81881674,8.96349239 4.8452056,9.00360752 L4.99422507,9.21189765 C5.04855511,9.18875431 5.10288511,9.17178252 5.1603197,9.15481073 C5.2177543,9.14092471 5.27518892,9.12858161 5.33417579,9.12086715 L5.38229665,8.84777565 C5.39161038,8.80148894 5.41334238,8.76600247 5.45059725,8.73977335 C5.48785212,8.7135442 5.53131615,8.70582977 5.57633245,8.71200132 L5.91938772,8.77217405 C5.96285174,8.78143137 6.00010661,8.80303183 6.02804775,8.84006118 C6.05443665,8.87709054 6.06530263,8.92029148 6.05598893,8.96503528 L6.0125249,9.21498343 C6.06685491,9.2381268 6.12118494,9.2658988 6.16930583,9.29521373 C6.22053127,9.3260715 6.26709985,9.3584722 6.31211615,9.39241578 L6.54340683,9.23349811 C6.5806617,9.2057261 6.62102114,9.19646875 6.66603744,9.2057261 C6.71260602,9.21498343 6.74675633,9.23658391 6.77469747,9.27669905 L6.97494242,9.5590479 C7.00288356,9.59916303 7.0121973,9.63927816 7.00288356,9.6838677 C6.99356986,9.73030867 6.97183783,9.76579514 6.9314784,9.79202429 L6.72191975,9.94014172 C6.74520405,9.99414284 6.76227918,10.048144 6.77935434,10.1052309 C6.79332491,10.1623179 6.8057432,10.2194048 6.81350463,10.2780346 L7.08825933,10.3258642 C7.1348279,10.3351215 7.1705305,10.356722 7.19691936,10.3937513 C7.22330823,10.4307807 7.23106965,10.4739816 7.2248605,10.5187254 L7.16432135,10.8597041 C7.15500762,10.902905 7.13327562,10.9399344 7.09602075,10.9677064 C7.05876588,10.9939355 7.01530185,11.0047358 6.97028555,10.9953241 L6.71881516,10.9522775 C6.69553089,11.0062786 6.66758972,11.0602798 6.6380963,11.1081094 C6.60705057,11.1590247 6.57445256,11.2083972 6.54030224,11.253141 L6.70018772,11.4799459 C6.7281289,11.5169752 6.7374426,11.5570904 6.7281289,11.6018342 C6.71881516,11.6481209 6.69708317,11.6820645 6.65672373,11.7098365 L6.37265533,11.911955 C6.33229587,11.9381842 6.29193644,11.9458986 6.24692014,11.9381842 C6.20035156,11.9289268 6.16464896,11.9073264 6.1382601,11.8733828 L5.9892406,11.6633955 C5.9349106,11.6866931 5.88058056,11.7036649 5.82314597,11.7206367 C5.76571138,11.7343684 5.70827679,11.7468658 5.64928992,11.7545803 L5.60116903,12.0276718 C5.59185532,12.0739585 5.5701233,12.109445 5.53286842,12.1356741 C5.49561355,12.1619032 5.45214953,12.1696177 5.40713323,12.1634461 L5.06407796,12.1032734 C5.02061394,12.0940161 4.98335906,12.0724156 4.95541792,12.0353862 C4.92902906,11.9982026 4.91816305,11.9551559 4.92747678,11.9104122 L4.9709408,11.660464 C4.91661077,11.6373206 4.86228073,11.6095486 4.81415987,11.5800794 C4.76293443,11.5493759 4.71326126,11.5169752 4.66824496,11.4830316 L4.4385066,11.6419493 C4.40125172,11.6697213 4.36089226,11.6789786 4.3127714,11.6697213 C4.2677551,11.660464 4.23050022,11.6388635 4.20411136,11.6018342 L4.00076183,11.3194853 C3.97437297,11.2793702 3.96661154,11.2391007 3.97437297,11.1943569 C3.9836867,11.1496131 4.00231414,11.1127381 4.03956901,11.0865089 L4.2537845,10.9383915 C4.23050022,10.8843904 4.21342507,10.8303892 4.19634991,10.7733023 C4.18237934,10.7162153 4.16996105,10.6591284 4.16219962,10.6004986 L3.88744495,10.552669 C3.84242863,10.5434117 3.80517378,10.5218112 3.77878489,10.4847819 C3.75239602,10.4477525 3.7446346,10.4045516 3.75084375,10.3598078 L3.81138292,10.0188291 C3.82069663,9.97562816 3.84242863,9.9385988 3.8796835,9.9108268 C3.91693837,9.8829005 3.9604024,9.87379744 4.0054187,9.8829005 L4.25688909,9.9262557 C4.28017339,9.87225455 4.30500995,9.82133918 4.33760798,9.7704238 C4.36865368,9.71950846 4.40125172,9.67013597 4.43540201,9.62847795 L4.27551652,9.39858733 C4.24757535,9.36155798 4.23826165,9.32144284 4.24757535,9.27669905 C4.25688909,9.23041233 4.27862108,9.19646875 4.31898055,9.16869675 L4.60304892,8.96966394 L4.61081037,8.96040661 Z" id="Fill-1-path" fill="#33018F" fill-rule="nonzero" mask="url(#mask-2)"></path>
                    <path d="M5.60116903,9.83059653 C5.51889785,9.81671052 5.43817896,9.81979629 5.35746009,9.83676808 C5.2767412,9.85682565 5.20533603,9.88768346 5.14324458,9.93088437 C5.07960084,9.97717108 5.0252708,10.0327151 4.9802545,10.1021451 C4.93368593,10.1700323 4.90574475,10.2471768 4.89177418,10.3304929 C4.87780361,10.412266 4.88090817,10.4924963 4.89798333,10.5727266 C4.91816305,10.6529569 4.94920878,10.7239298 4.9926728,10.7856454 C5.03924138,10.8489039 5.09512369,10.902905 5.16497657,10.9476488 C5.23327718,10.9939355 5.31089148,11.0217076 5.39316266,11.0355936 C5.47543383,11.0494796 5.55615273,11.0462395 5.63687163,11.029422 C5.71759049,11.0093644 5.78899568,10.9785066 5.85108711,10.9353057 C5.91473085,10.889019 5.96906088,10.833475 6.01407718,10.7638906 C6.06064579,10.6961578 6.08858693,10.6190133 6.1025575,10.5356972 C6.11652807,10.453924 6.11342352,10.3736938 6.09634836,10.2934635 C6.07616864,10.2132332 6.04512291,10.1422603 6.00165889,10.0805447 C5.95509031,10.0172862 5.899208,9.96328506 5.82935512,9.91854124 C5.76105451,9.87379744 5.6834402,9.84602544 5.60116903,9.83059653 L5.60116903,9.83059653 Z" id="Fill-1-path" fill="#FFFFFF" fill-rule="nonzero" mask="url(#mask-2)"></path>
                </g>
            </g>
        </g>
    </g>
</svg>