<?xml version="1.0" encoding="UTF-8"?>
<svg width="28px" height="28px" viewBox="0 0 28 28" version="1.1" xmlns="http://www.w3.org/2000/svg" xmlns:xlink="http://www.w3.org/1999/xlink">
    <title>Luck</title>
    <g id="Page-1" stroke="none" stroke-width="1" fill="none" fill-rule="evenodd">
        <g id="Desktop:-STATS-B1-Copy-29" transform="translate(-540.000000, -663.000000)" fill-rule="nonzero">
            <g id="Luck" transform="translate(540.000000, 663.000000)">
                <circle id="Oval-Copy-10" fill="#B6B001" cx="14" cy="14" r="14"></circle>
                <g id="clover-leaf-copy-8" transform="translate(6.125000, 4.666667)" fill="#FFFFFF">
                    <path d="M10.0869798,9.51170914 C10.9602217,10.5021361 11.7575968,11.4925631 12.4744602,12.4845328 C13.8787693,14.4268188 14.9749665,16.3721902 15.7351824,18.320647 C15.8296287,18.5628543 15.7088613,18.8343732 15.465778,18.9269365 C15.2226947,19.0194997 14.9501937,18.9007102 14.8572956,18.658503 C14.1264975,16.7856395 13.0690078,14.9112333 11.7111477,13.0321988 C11.0670545,12.1420487 10.354836,11.2503559 9.57913708,10.3571203 C9.87486258,11.1145964 9.98943689,11.8874998 9.79280263,12.5817243 C9.41037224,13.9346907 8.07573667,14.1167318 6.88199651,13.0383698 C5.54736093,14.3142002 4.1476967,13.7140816 3.88603381,12.3040345 C3.65843354,11.0760284 4.33658945,9.66289581 5.27795654,8.48734227 C4.04241224,9.4376585 2.48791789,10.1519384 1.19198984,9.79865527 C-0.167418553,9.4284022 -0.360956196,8.09857653 0.71356479,6.90142492 C-0.576170052,5.5823983 0.0152809802,4.18160747 1.42887991,3.91163127 C2.67990723,3.67250949 4.12756878,4.36364857 5.32595388,5.31550755 C4.35052415,4.07670244 3.6073396,2.49849868 3.96809376,1.18718568 C4.33968605,-0.167323512 5.67432162,-0.360163659 6.874255,0.710484836 C8.19960076,-0.574601901 9.6039099,0.016260308 9.87486258,1.42476474 C10.1210425,2.70522331 9.38095454,4.19394926 8.38384861,5.40498537 C9.65500384,4.41301566 11.3008479,3.64319778 12.6463216,4.03196351 C14.0010851,4.42227199 14.1744948,5.75364035 13.0844909,6.93536477 C14.3556461,8.27290403 13.7425188,9.66598124 12.3273716,9.91590209 C11.6136048,10.0424052 10.8394542,9.86499229 10.0869798,9.51170914 L10.0869798,9.51170914 Z" id="Path"></path>
                </g>
            </g>
        </g>
    </g>
</svg>