<?xml version="1.0" encoding="UTF-8"?>
<svg width="28px" height="28px" viewBox="0 0 28 28" version="1.1" xmlns="http://www.w3.org/2000/svg" xmlns:xlink="http://www.w3.org/1999/xlink">
    <title>Magic</title>
    <g id="Page-1" stroke="none" stroke-width="1" fill="none" fill-rule="evenodd">
        <g id="Desktop:-STATS-B1-Copy-29" transform="translate(-540.000000, -577.000000)" fill-rule="nonzero">
            <g id="Magic" transform="translate(540.000000, 577.000000)">
                <circle id="Oval" fill="#007B62" cx="14" cy="14" r="14"></circle>
                <path d="M13.3562165,12.2744408 L17.7076463,13.225715 C17.7909913,13.2439352 17.8437664,13.3261834 17.8255228,13.4094215 C17.8161994,13.4519604 17.7893105,13.4885835 17.751491,13.5102541 L15.9932309,14.5177349 L15.9932309,14.5177349 L13.8876359,15.7242384 L14.3256238,20.1508794 C14.3340138,20.2356753 14.2719863,20.3112088 14.1870816,20.319588 C14.1437053,20.3238687 14.1005369,20.3096496 14.0682214,20.2804368 L10.7655467,17.2948528 L10.7655467,17.2948528 L6.6863538,19.0798657 C6.60820755,19.1140617 6.51710057,19.0785142 6.48286068,19.0004682 C6.46536112,18.9605798 6.4655558,18.9151631 6.48339667,18.8754258 L8.30619266,14.8155037 L8.30619266,14.8155037 L5.34526122,11.4917412 C5.2885502,11.4280807 5.29425012,11.3305592 5.35799232,11.273921 C5.39057175,11.2449724 5.4338842,11.231124 5.47724004,11.2357935 L9.90662458,11.7128459 L9.90662458,11.7128459 L12.1574762,7.87375073 C12.2005871,7.80022002 12.2952203,7.77551504 12.3688455,7.81857067 C12.4064698,7.84057318 12.4330328,7.87742973 12.4419805,7.92004687 L13.3562165,12.2744408 L13.3562165,12.2744408 Z" id="Path" fill="#FFFFFF"></path>
                <path d="M15.0462538,19.3581224 L19.1179756,23.5494636 C19.2157213,23.6499197 19.3776127,23.6499197 19.4768858,23.551009 L21.0591452,21.9638013 C21.1584183,21.8648906 21.1584183,21.7010697 21.0606725,21.6006136 L15.4952734,15.8900658 C15.3975276,15.7896096 15.1394177,15.7478817 15.1363632,15.8885203 L15.0462538,19.3581224 L15.0462538,19.3581224 L15.0462538,19.3581224 Z" id="Path" fill="#FFFFFF"></path>
                <path d="M19.0612905,12.0866117 C18.8166769,10.889688 18.4531459,10.0505033 17.9706974,9.5690579 C17.4882545,9.08761793 16.6490673,8.72459925 15.4531358,8.48000192 C15.4187824,8.47297392 15.3941131,8.44274853 15.3941131,8.40768355 C15.3941131,8.3726197 15.4187842,8.3423963 15.4531377,8.33537396 C16.6500646,8.09074423 17.4892512,7.72670322 17.9706974,7.24325096 C18.4531277,6.75881474 18.8166495,5.91962674 19.0612628,4.72568687 C19.0683013,4.69133204 19.0985325,4.66666667 19.1336009,4.66666667 C19.1686676,4.66666667 19.1988932,4.69133992 19.2059113,4.72569711 C19.4505249,5.9226209 19.8140559,6.76180552 20.2965044,7.24325096 C20.7789486,7.72469224 21.6181391,8.08820498 22.8140757,8.33378922 C22.8484296,8.34084592 22.8730887,8.37108312 22.8730887,8.40615443 C22.8730887,8.44121938 22.8484194,8.4714448 22.814066,8.47847277 C21.6181346,8.72307012 20.7789474,9.08608881 20.2965044,9.56752877 C19.814055,10.0499781 19.4505236,10.8896745 19.20591,12.086618 C19.1988874,12.1209711 19.1686645,12.1456422 19.1336009,12.1456422 C19.0985342,12.1456422 19.0683086,12.1209689 19.0612905,12.0866117 Z" id="Path" fill="#FFFFFF"></path>
            </g>
        </g>
    </g>
</svg>