<?xml version="1.0" encoding="UTF-8"?>
<svg width="28px" height="28px" viewBox="0 0 28 28" version="1.1" xmlns="http://www.w3.org/2000/svg" xmlns:xlink="http://www.w3.org/1999/xlink">
    <title>Strength</title>
    <g id="Page-1" stroke="none" stroke-width="1" fill="none" fill-rule="evenodd">
        <g id="Desktop:-STATS-B1-Copy-29" transform="translate(-540.000000, -405.000000)" fill-rule="nonzero">
            <g id="Strength" transform="translate(540.000000, 405.000000)">
                <circle id="Oval" fill="#A90000" cx="14" cy="14" r="14"></circle>
                <path d="M8.66091365,9.98036597 C8.76338689,9.89166853 8.85821285,9.83049786 8.97751003,9.82285153 C9.03868808,9.81826373 9.10139557,9.82591006 9.16716197,9.84426126 C9.33846048,9.89166853 9.40422688,9.96966113 9.53423021,10.0828268 C10.1750702,10.6471261 10.8052041,11.2725961 11.4185139,11.9913514 C11.7351103,12.281912 11.8069945,12.5847067 11.5592234,12.8752674 L11.1065059,13.3814546 C10.8770882,13.6108446 10.5849631,13.5986104 10.2668373,13.3692205 C8.83527108,12.1656877 7.14216875,11.5448056 8.66091365,9.98036597 L8.66091365,9.98036597 Z M8.66397257,12.7223407 C8.69914993,13.7790639 8.89339022,14.4244143 9.26504682,15.1278769 C9.81259032,15.8359272 10.25919,16.5149216 10.5023727,17.1358037 C10.6721418,17.5701154 10.8113219,17.9799588 10.9979149,18.4188583 L12.6007796,23.3538012 L19.9712043,23.3538012 L16.5926468,17.4003668 C16.3341696,16.9844064 16.2791094,17.0853379 16.6186475,16.7687798 C17.30843,16.1219001 17.9003275,15.4184375 18.4249292,14.6859189 C19.8672016,12.6703457 20.6365155,11.9210051 19.4695443,9.84120273 L18.5916394,8.2385315 C17.5179647,6.29942162 15.3033196,8.0871341 13.6438652,9.03833785 C13.1590292,9.64086882 14.2541162,10.9300404 15.2191998,10.5676043 L16.4657024,10.0996488 L16.8343001,10.9728599 C13.7845747,10.5721921 13.1636176,12.540358 12.9510239,15.111055 C12.6466631,13.5343812 12.9036109,12.2727364 13.5352742,11.6319738 C12.9923191,12.0311123 12.4203044,12.5541214 11.8957026,13.2055889 C11.7687582,13.3631034 11.6448727,13.5282642 11.524046,13.7010713 C10.8847355,14.554402 10.2393071,13.9641051 9.62752674,13.4839154 C9.30022421,13.2269987 8.96680385,12.9517307 8.66397257,12.7223407 L8.66397257,12.7223407 Z M15.3247319,4.56523346 C15.3889689,4.56982126 15.4532058,4.58817243 15.5174428,4.61569923 C15.8416864,4.7594503 16.2164019,5.41397634 16.3785237,5.71524182 C16.4825264,5.90640012 16.776181,6.42635073 17.0147753,6.8652502 L14.9668404,7.69105409 C14.6380084,7.16039864 14.3428244,6.61597977 14.0445814,6.18166809 C13.8641062,5.94769032 13.8350466,5.71218328 13.9344609,5.48432258 C14.0506992,5.2197595 14.3428244,5.02095484 14.5829482,4.872616 C14.7511878,4.77015516 15.1381389,4.54841152 15.3247319,4.56523346 L15.3247319,4.56523346 Z M12.8959636,5.92628059 C12.9602006,5.92780985 13.0244375,5.94004399 13.0917334,5.96451225 C13.2660908,6.02874145 13.3272688,6.11590962 13.4511544,6.24589729 C13.6561008,6.46152386 13.8426938,6.72302843 14.0201102,7.00747197 C14.1195245,7.16651571 14.3397654,7.50601285 14.5691831,7.86844899 C13.8625767,8.18653643 12.9097287,8.35781427 12.8776102,9.26466928 C12.4600701,8.69578214 12.086884,8.0871341 11.7213452,7.61917855 C11.527105,7.39590565 11.4827509,7.16345717 11.5684001,6.9294794 C11.7152274,6.53034083 12.4998358,5.91863425 12.8959636,5.92628059 L12.8959636,5.92628059 Z M10.7103781,7.75681255 C10.7715561,7.75222475 10.8342636,7.75987109 10.90003,7.77822229 C11.0713285,7.82562952 11.1370949,7.90362212 11.2670983,8.01678786 C11.479692,8.20488763 11.6785206,8.44039467 11.8712314,8.69731141 C12.1266498,9.03680858 13.103969,10.2816315 13.243149,10.5676043 C13.337975,10.7633504 13.3486812,10.9667428 13.1712648,11.1747231 L12.5900734,11.7390224 C12.3606558,11.9684124 12.0685306,11.9561782 11.7504048,11.7267883 C11.0070916,11.0095623 10.3264859,10.1103536 9.72999994,9.46959099 C9.52658295,9.27384488 9.4654049,9.05515978 9.52811242,8.82424054 C9.62599727,8.4572166 10.3402509,7.78128082 10.7103781,7.75681255 L10.7103781,7.75681255 Z" id="Shape" fill="#FFFFFF"></path>
            </g>
        </g>
    </g>
</svg>